<svg xmlns="http://www.w3.org/2000/svg" viewBox="0 0 514.89 660.76"><defs><style>.a{fill:#e65155;}.b{fill:#223051;}.c{fill:#334777;}.d{fill:#f2b389;}.e{fill:#fbf8f9;}.f{fill:#21365b;}.g{fill:#fcd453;}.h{fill:#fddc93;}.i{fill:#f8c19d;}.j{fill:#e39676;}.k{fill:#e6ad7e;}.l{fill:#955a4b;}.m{fill:#d8e7ef;}</style></defs><title>Trump</title><circle class="a" cx="257.44" cy="403.32" r="243.27"/><path class="b" d="M59.65,646.56c-7.46,0-9.29-1.73-9.3-9q-.08-34.47,0-68.93c0-6.53,1.79-8.13,8.4-8.1H113l3.8-.17,140.14,0,27.48-.13c3.83.1,7.65.27,11.47.27q78.87.09,157.74.13c3.76.37,5.08,2.87,5.09,6.2q.09,36.72,0,73.43c0,4.54-2.75,6.39-7.17,6.37Z"/><path class="c" d="M257,560.32l-140.14,0a31.28,31.28,0,0,0,.93-8.89c0-20.64.09-41.28,0-61.91,0-3.88,1.08-6,5.11-6.19a40.82,40.82,0,0,0,4.91.49q23.13-.19,46.26-.5c8.15-.1,8.07-.12,7.79-8.28-.1-2.74-.2-5.07-3.87-4.66,1.5-4.4,4-7.86,8.51-9.65a12.39,12.39,0,0,0,3.89-3c1.83-1.86,2.38-4.11.56-6.24s-4.25-2.29-6.66-.67a44.76,44.76,0,0,1-4.13,2.74,5.63,5.63,0,0,1-7.22-1.37,6.15,6.15,0,0,1-1.08-7.37c1.32-2.68,3.67-3.68,6.6-3.47,1.77.13,3,1.21,4.39,2.17,2.35,1.7,4.71,1.79,6.64-.5,2.18-2.58,1.19-5-1-7a16.9,16.9,0,0,0-13.81-4.26c1-4,5.34-5.43,6.85-9l.28.07.21-.21a8,8,0,0,0,5-4,3.31,3.31,0,0,0,3-2.13,3.9,3.9,0,0,0,3.61-2.73l1.35-.4c3.57-.9,6.46-3,9.25-5.25a34.66,34.66,0,0,1,10.75,5.33c.21,1.14.32,2.31.64,3.42q9,31.64,18.13,63.26,10.08,35,20.24,69.88C254,553.73,255.93,556.88,257,560.32Z"/><path class="c" d="M453.64,560.59q-78.87-.06-157.74-.13c-3.82,0-7.64-.17-11.47-.27q1.57-5.58,3.13-11.18,9.07-33.68,18.12-67.33,8.31-31,16.52-62.07l15.34-7.53c2.59,1.79,5,3.86,8.17,4.68l1,.84a5.82,5.82,0,0,0,4.11,3l.18.2.26-.09a2.81,2.81,0,0,0,2.46,2.08,12.63,12.63,0,0,0,5.28,4.7,6.36,6.36,0,0,0,3.87,3.85,17.62,17.62,0,0,0,5.79,6.28,3.09,3.09,0,0,0,2.17,2.81l.06.1.92,1.05h-.07a2.86,2.86,0,0,0,1.89,2.49,1.43,1.43,0,0,0,1.14,1.5,8.18,8.18,0,0,0,3.82,5.58l-.17.19.18.18a3,3,0,0,0,1.95,2.68,3.21,3.21,0,0,0,1.44,3.36c.26.4.52.8.77,1.2a.67.67,0,0,0,.23.76,5,5,0,0,0,2.53,4.67c.06.45.13.9.19,1.35a2.59,2.59,0,0,0,1.75,2.72,3.71,3.71,0,0,0,.61,3.25,5.92,5.92,0,0,0,1.76,4.93,4.11,4.11,0,0,0,.76,3.11,4,4,0,0,0,1.18,3.91c3.95,22.13,2.38,44.48,2.64,66.75.12,9.69,0,9.7,9.49,9.71A275.91,275.91,0,0,1,453.64,560.59Z"/><path class="d" d="M174.57,431.79a16.9,16.9,0,0,1,13.81,4.26c2.2,2,3.19,4.4,1,7-1.93,2.29-4.29,2.2-6.64.5-1.35-1-2.62-2-4.39-2.17-2.93-.21-5.28.79-6.6,3.47a6.15,6.15,0,0,0,1.08,7.37,5.63,5.63,0,0,0,7.22,1.37,44.76,44.76,0,0,0,4.13-2.74c2.41-1.62,4.77-1.57,6.66.67s1.27,4.38-.56,6.24a12.39,12.39,0,0,1-3.89,3c-4.56,1.79-7,5.25-8.51,9.65l-50.08-1.09-.33-2.88c0-1.31,0-2.63,0-3.94.1-1,.3-2,.3-3q-.06-23-.16-45.94c0-3.31.69-6.28,4.7-6.25s4.74,3,4.76,6.29c0,5.82,0,11.65.11,17.47,0,1.67-.72,3.69,2.51,5.6V401.53l3.19-2.71c4.73.45,6.37,3.15,6.35,7.75,0,8.62.29,17.24.54,25.86,0,1.35-.52,3.61,1.56,3.53s1.47-2.28,1.47-3.68c0-6.63-.11-13.27,0-19.91.05-4.27-.83-8.65,1.28-12.72l1.86-.89,3.95.19,2.45,2.55c.19,9.27.42,18.55.55,27.82.11,8.34.11,8.36,7.27,4.62C171.56,433.17,173.07,432.5,174.57,431.79Z"/><path class="e" d="M127.81,469.34l50.08,1.09c3.67-.41,3.77,1.92,3.87,4.66.28,8.16.36,8.18-7.79,8.28q-23.13.3-46.26.5a40.82,40.82,0,0,1-4.91-.49q.2-6.47.37-12.92l2.54-.69Z"/><path class="c" d="M113,560.54H58.74c3.71-1.24,7.51-.49,11.26-.53,12.57-.1,25.13-.07,37.69,0C109.46,560,111.33,559.5,113,560.54Z"/><path class="a" d="M287.56,549q-1.56,5.6-3.13,11.18l-27.48.13c-1-3.44-3-6.59-3.09-10.3,1.3-1.46,1.4-3.36,1.77-5.12,2.12-10.09,3.47-20.41,6.44-30.23,3.37-11.13,3.31-20.7-6.65-28.35a4.09,4.09,0,0,1-.33-.38c-1.67-1.72-1.77-3.29,0-5.14,4.17-4.3,8.27-8.67,12.23-13.16,2-2.27,3.43-1.73,5.27.14,4.54,4.62,9.15,9.19,13.86,13.65,2.26,2.13,2.08,3.74-.14,5.73-2.84,2.56-5.37,5.46-8.23,8-2.46,2.19-3.36,4.31-2.48,7.82,3.58,14.18,6.76,28.46,10.05,42.71C286,547,286.24,548.3,287.56,549Z"/><path class="d" d="M204.1,408.13c-2.73-3.6-7.21-4.52-10.73-6.9-6.18-4.18-11.46-9.42-17.32-14-5.69-7.31-10.29-15.5-17.35-21.72a11.85,11.85,0,0,0-1.59-6.22,119.42,119.42,0,0,1-10.86-27.27,149.63,149.63,0,0,1-4.95-42.35c.1-4.24-1.74-6.36-5.55-4.69-4.29,1.87-8.35,1.38-12.67.67-13-2.16-22.13-11.32-24.75-25.12-2.17-11.51,4-24.41,14.37-30.68,3.53-2.13,5.86-1.28,6.79,2.45,2.06,8.27,5.42,16,8.9,23.71,6.46,14.35,17,25.31,28.41,35.6,3.66,3.3,6.72,1.86,6.91-3,.25-6.64.77-13.29.92-19.91.43-18.77,3-37.45,2.37-56.26,1.94-.77,3.58-2.39,6-1.67,14.94,4.36,30.45,4.23,45.77,5.16,4.18.25,8.81,1.76,13.07-.44a75.66,75.66,0,0,1,6.7,4.23c12.33,9.7,26.14,14.72,42,13.9,2.76-.14,5.65-.64,8.32.74-.68,1.06-1.36,2.12-2.05,3.17l-5.64.29c-1.25-1.16-2.43-1.64-3.3.39l-2,.11a2.92,2.92,0,0,0-2.72-1.82c-11.21-1.21-21.72-4.36-31-11-1.63-1.19-3.39-.93-5.25-.43-8.91,2.38-10.8,10.15-9.57,16.78,3.14,16.82,25.3,32,42.42,29.53a2.55,2.55,0,0,0,2.12-1.85c2.31,0,4.64-.18,6.92,0,7.1.68,12.63-2.63,16.86-7.61,2.81-3.31,6-7.2,4.19-12.39.6-.53,1.46-.94,1.76-1.61,4.44-9.79,2.53-13.06-7.88-13.59.89-1.93,2.88-2,4.52-2.73,2.37-1,4.5-2.19,4.78-5.13,3.9-3.48.46-5.4-1.67-7.49-3.89-3.8-9.18-3.24-13.94-4.32-1.37-.31-3.63.06-3.6-1.81,0-2.05,2.43-1.76,3.94-2.2a6.53,6.53,0,0,1,1.48-.12c12.44-.69,24.36-4.57,36.64-6.11,9.57-1.21,18.59-4.44,27.88-6.64,4.17-1,8.38-1.82,12.47-3.05,6.09-1.83,6.45-1.67,6.64,4.69-4.31,1.56-7.24,5.11-10.88,7.63-8.39,5.83-17.87,9.17-27.29,12.71-2.75,1-5.82,1.95-5.91,5.79-6.14.66-3.89,5.46-3.71,8.53,1.22,20.41,2.74,40.81,2.81,61.27,0,6.05-2.64,9.91-7.37,11-7.07,1.58-13.29-.89-15.76-6.26-1.39-3-.49-6.27-.94-9.36-.4-2.71,1.83-6.91-2.12-7.77s-4.74,3.53-6.09,6.19c-8.42,16.61-9.33,34.5-8.29,52.6.21,3.64.38,7.3.64,11,.15,2.09.67,4.38,3.21,4.22,2.34-.15,1.62-2.52,1.69-4.05a27.23,27.23,0,0,0-.13-6c-1.92-11.14-.79-22.27.37-33.33a56.77,56.77,0,0,1,5.11-18.41c6.94,15.4,9.56,17.61,21.57,16.27,9.44-1.06,13.4-7.49,14-16.8a33.71,33.71,0,0,1,3,7.3c2.81,9.86,3.45,20,3.2,30.16-.17,6.81.39,13.65-.93,20.43-.35,1.8-.14,3.86,2.25,4.36,1.76.37,2.38-1,2.51-2.38,1.74-19.12,3.56-38.57-3.4-56.79-4.58-12-10.4-23.2-8.84-36.49a5.61,5.61,0,0,0-.31-1.46c-.16-.83-.28-1.74.51-2.27s1.58.1,2.2.63c4.17,3.46,9.3,4.35,14.39,5.2,2,.34,4.43,1,5.6-1.78,7.16-2.46,9.64-8.66,12-15,1.17.26,2.34,2.45,3.32.87,1.14-1.81-1-2.76-2.23-3.75s-4.05-1.2-3.34-3.59c.63-2.1,3-2.32,5-2.56,1.35-.16,3.47.58,3.61-1.51.12-1.83-2.18-1.62-3.32-2.43,0-3.37.53-6.94-3-9.13.62-2.83,3.1-4.22,4.87-6.14.77-.85,1.73-1.75,3-1.16s1.12,1.93,1.18,3.06c.32,6.8.81,13.59.89,20.39.16,12.13.13,24.27.05,36.41,0,2.94.37,5.61,2.29,7.92-1.86,1.77-2.09,4-2,6.42.41,14.46.1,28.92.7,43.4,1.28,30.64-10.55,55.32-35.23,73.68a15.18,15.18,0,0,0-4,3.7l-15.34,7.53c-6.2.89-11.91,4-18.31,3.95-2.46-2-4.27.74-6.46.93-16.68,1.48-33.28,1.56-49.86-1.44-4-.73-7.83-2.7-12-2.48-6.88-2.4-13.48-5.62-20.67-7.11A34.66,34.66,0,0,0,204.1,408.13Zm107.13-73.71c.35,5.58.56,9.89.91,14.2.44,5.36,4.21,9,8.91,8.83s8.32-4.08,8.27-9.43c0-4.31-.55-8.61-.81-12.92-.43-7.1-3.67-10.82-9.21-10.5C314,324.91,311.07,329,311.23,334.42Zm0,70c12.17-.08,25.23-7.62,31.59-18.28,1.16-1.95,4.8-4.62,1.54-6.73s-4.06,2.28-5.52,4.12c-11,13.85-22.85,20-39.85,12.47-2.26-1-4.34-2.43-6.54-3.59-1.34-.7-3-1.41-4,.16s0,2.8,1.28,3.79C296.31,401.26,304,403.11,311.26,404.41Z"/><path class="e" d="M214.85,413.46c7.19,1.49,13.79,4.71,20.67,7.11,8.76,10.22,18.57,19.43,27.94,29.07,7.6,7.81,7.4,7.58,14.77-.42,8.2-8.89,16.3-17.91,25.66-25.66,6.4.05,12.11-3.06,18.31-3.95q-8.25,31-16.52,62.07-9,33.68-18.12,67.33c-1.32-.71-1.59-2-1.89-3.32-3.29-14.25-6.47-28.53-10.05-42.71-.88-3.51,0-5.63,2.48-7.82,2.86-2.54,5.39-5.44,8.23-8,2.22-2,2.4-3.6.14-5.73-4.71-4.46-9.32-9-13.86-13.65-1.84-1.87-3.27-2.41-5.27-.14-4,4.49-8.06,8.86-12.23,13.16-1.79,1.85-1.69,3.42,0,5.14a4.09,4.09,0,0,0,.33.38c10,7.65,10,17.22,6.65,28.35-3,9.82-4.32,20.14-6.44,30.23-.37,1.76-.47,3.66-1.77,5.12q-10.12-34.93-20.24-69.88-9.12-31.62-18.13-63.26C215.17,415.77,215.06,414.6,214.85,413.46Z"/><path class="f" d="M348.89,507.55c3,0,6,0,8.95,0,2.3,0,3.87,1,3.82,3.53,0,2.27-1.43,3.3-3.53,3.3q-22.63,0-45.26,0c-2,0-2.94-1.18-3-3.17s.63-3.62,3-3.65c3.48,0,7,0,10.44,0Z"/><path class="a" d="M348.89,507.55l-25.56,0c2.29-5.3,6.68-9,10.31-13.22,1.36-1.6,2.86-1.6,4.22-.07C341.69,498.58,346.24,502.28,348.89,507.55Z"/><path class="g" d="M167,212.45c.64,18.81-1.94,37.49-2.37,56.26-.15,6.62-.67,13.27-.92,19.91-.19,4.89-3.25,6.33-6.91,3-11.4-10.29-22-21.25-28.41-35.6-3.48-7.74-6.84-15.44-8.9-23.71-.93-3.73-3.26-4.58-6.79-2.45-10.42,6.27-16.54,19.17-14.37,30.68,2.62,13.8,11.73,23,24.75,25.12,4.32.71,8.38,1.2,12.67-.67,3.81-1.67,5.65.45,5.55,4.69a149.63,149.63,0,0,0,4.95,42.35,119.42,119.42,0,0,0,10.86,27.27,11.85,11.85,0,0,1,1.59,6.22c-9.09-1-18.16-2.21-27.27-3-14.84-1.29-23.21-13.15-19.1-27.4,1.33-4.63,2.43-9.36,4.11-13.87,1.27-3.4.26-5.24-2.67-6.87-23.29-13-36.79-34-46.82-57.78a3.86,3.86,0,0,1-.17-1,86.1,86.1,0,0,1-1-14.88c.86-18.4,7.36-33.25,25.59-40.75,9.56-3.93,16.4-10.48,19.44-20.57.55-1.84,1.71-4.09-.3-5.56-5.89-4.31-10.27-10.32-16.4-14.32-.28-2.46-2-4.17-3.25-6.11-10.33-16.11-10-32.66-1.76-49.36,2.77-5.63,5.76-11.26,10.61-15.56a17.43,17.43,0,0,1,1.55,3.12c5.15,18.68,18.53,29.59,35,37.94,12.78,6.48,26.43,9.65,40.31,12.4,25.84,5.12,52,4.66,78.08,4.45a8.25,8.25,0,0,0,1.49-.12c1.13-.22,2.46-.33,2.86-1.63.46-1.48-.92-2-1.85-2.59-4.64-2.92-9.38-5.68-14-8.68-9.59-6.29-19.39-12.29-27.91-20-1.14-1-3.37-2.13-2.48-3.86,1-2,3.25-.87,5-.49,14.77,3.32,29.52,6.74,44.3,10,17,3.76,34.11,7.4,51.17,11.05,1.74.38,3.74,1.1,5.07-.73,1-1.37.3-2.84-.42-4.22C309.17,108.69,296,96.33,281,86c-7.79-5.35-16.68-9.1-25.6-13.85a8,8,0,0,1,2.3-.36c17.79,3.9,35.73,7,53.48,11.16,25.75,6.12,51.3,12.8,76.4,21.08,21.65,7.14,42.91,15.32,63,26.41,6.52,3.61,12.45,8.23,19.4,11l-.07,0,1.43,1.08c8.69,11.63,17.17,23.41,24.51,36,.91,1.56,2,3,2.16,4.92l-.23.24c-6.37-1.07-12.71-2.43-19.12-3.14-23.13-2.55-46.13-.1-69.13,2.22-4.12.41-4.21,2.64-3.62,5.88,2.13,11.62,3.83,23.3,3.09,35.18-1.42,22.45-9,42.11-26.09,57.44-1.47,1.33-3.15,2.43-4.72,3.63-1.92-2.31-2.3-5-2.29-7.92.08-12.14.11-24.28-.05-36.41-.08-6.8-.57-13.59-.89-20.39-.06-1.13.11-2.47-1.18-3.06s-2.25.31-3,1.16c-1.77,1.92-4.25,3.31-4.87,6.14-3.92,1.19-6.46,5.31-11,5.17a2.45,2.45,0,0,0-2.11,1.8l-22.81.06c-.37-2-.75-3.93-1.13-5.89.09-3.84,3.16-4.76,5.91-5.79,9.42-3.54,18.9-6.88,27.29-12.71,3.64-2.52,6.57-6.07,10.88-7.63,3.56-2.51,2.71-6.53,1.89-9.39s-4.29-1.18-6.67-.83-4.63.56-6.91,1a434.84,434.84,0,0,1-59.35,7c-18.06,1-36.13,3.18-54.29,2.34-1.71-.07-4.33-.85-4.91,1.2-.71,2.52,2.3,2.93,3.85,3.79,9.07,5.06,19.14,7.4,29.07,10,7.06,1.84,14.3,3,21.44,4.57,3.86.86,6,3.33,6,7.44-.28,2.94-2.41,4.15-4.78,5.13-1.64.69-3.63.8-4.52,2.73l-4.83.05c-2.67-1.38-5.56-.88-8.32-.74-15.83.82-29.64-4.2-42-13.9a75.66,75.66,0,0,0-6.7-4.23c-4.3-3.42-7.63-7.42-8-13.22-.19-2.74-2.08-3.56-4.45-3.76-15.55-1.28-31.11-2.34-46.53-4.87-2.57-.43-5,.24-4.9,3.4C168,202.22,166.22,207.25,167,212.45Z"/><path class="h" d="M469.88,141.48c-6.95-2.8-12.88-7.42-19.4-11-20-11.09-41.3-19.27-63-26.41-25.1-8.28-50.65-15-76.4-21.08-17.75-4.21-35.69-7.26-53.48-11.16a8,8,0,0,0-2.3.36c8.92,4.75,17.81,8.5,25.6,13.85,15,10.32,28.22,22.68,36.92,39.12.72,1.38,1.41,2.85.42,4.22-1.33,1.83-3.33,1.11-5.07.73-17.06-3.65-34.13-7.29-51.17-11.05-14.78-3.26-29.53-6.68-44.3-10-1.72-.38-4-1.49-5,.49-.89,1.73,1.34,2.83,2.48,3.86,8.52,7.75,18.32,13.75,27.91,20,4.58,3,9.32,5.76,14,8.68.93.59,2.31,1.11,1.85,2.59-.4,1.3-1.73,1.41-2.86,1.63a8.25,8.25,0,0,1-1.49.12c-26.12.21-52.24.67-78.08-4.45-13.88-2.75-27.53-5.92-40.31-12.4-16.46-8.35-29.84-19.26-35-37.94a17.43,17.43,0,0,0-1.55-3.12,156.81,156.81,0,0,1,72.8-58c57.86-23,115.41-22,172.18,4.43,42.94,20,78.26,49.66,109,85.23,4.79,5.55,9.29,11.34,13.87,17C468.54,138.49,469.94,139.6,469.88,141.48Z"/><path class="h" d="M94.1,159.56c6.13,4,10.51,10,16.4,14.32,2,1.47.85,3.72.3,5.56-3,10.09-9.88,16.64-19.44,20.57-18.23,7.5-24.73,22.35-25.59,40.75a86.1,86.1,0,0,0,1,14.88c-11.33-20.79-14.24-42.19-4.58-64.47,1.12-2.57,2.5-5,3.76-7.55A92.3,92.3,0,0,1,94.1,159.56Z"/><path class="g" d="M497.91,183.43l.32.3-.55-.07Z"/><path class="h" d="M471.24,142.54l-1.43-1.08Z"/><path class="i" d="M288.85,234.37l4.83-.05c10.41.53,12.32,3.8,7.88,13.59-.3.67-1.16,1.08-1.76,1.61-4-2.05-5.47.47-6.29,3.66a16.25,16.25,0,0,1-10.62,11.53c-3.46,1.29-7.43,1.22-11.17,1.74-1,.14-2.27.14-2.36,1.31-.13,1.59,1.37,1.53,2.47,1.73a2.55,2.55,0,0,1-2.12,1.85c-17.12,2.44-39.28-12.71-42.42-29.53-1.23-6.63.66-14.4,9.57-16.78,1.86-.5,3.62-.76,5.25.43,9.27,6.69,19.78,9.84,31,11a2.92,2.92,0,0,1,2.72,1.82c-1.49.11-3,.28-4.46.33-2.78.08-5.25.9-5,4.14.21,2.93,2.68,3.45,5.22,3.31L286,245.3c2.36-.14,5-.21,5.5-3.16.62-3.51-2.39-3.8-4.7-4.6C287.49,236.49,288.17,235.43,288.85,234.37Zm-40.37,21.31a22.14,22.14,0,0,1,10.41-5.28c1.9-.43,2-2,1.31-3.57-1.88-4.39-9.13-7.44-13.59-5.71-.89.35-2.16.53-2,1.81s1.41,1,2.4,1a11.25,11.25,0,0,1,2.46.2c1.43.31,3.17.3,3.71,2s-1,2.27-1.84,3.25C250.08,251,247.9,252,248.48,255.68Z"/><path class="j" d="M328.74,225.54c.38,2,.76,3.93,1.13,5.89-.36,3.5.55,6.89.83,10.34.73,9.2,6.15,15.55,15,18,2.7.74,5.66.1,8.15,1.72-1.17,2.75-3.56,2.12-5.6,1.78-5.09-.85-10.22-1.74-14.39-5.2-.62-.53-1.35-1.2-2.2-.63s-.67,1.44-.51,2.27a5.61,5.61,0,0,1,.31,1.46c-1.56,13.29,4.26,24.52,8.84,36.49,7,18.22,5.14,37.67,3.4,56.79-.13,1.41-.75,2.75-2.51,2.38-2.39-.5-2.6-2.56-2.25-4.36,1.32-6.78.76-13.62.93-20.43.25-10.19-.39-20.3-3.2-30.16a33.71,33.71,0,0,0-3-7.3c-.56,9.31-4.52,15.74-14,16.8-12,1.34-14.63-.87-21.57-16.27a56.77,56.77,0,0,0-5.11,18.41c-1.16,11.06-2.29,22.19-.37,33.33a27.23,27.23,0,0,1,.13,6c-.07,1.53.65,3.9-1.69,4.05-2.54.16-3.06-2.13-3.21-4.22-.26-3.65-.43-7.31-.64-11-1-18.1-.13-36,8.29-52.6,1.35-2.66,2.24-7,6.09-6.19s1.72,5.06,2.12,7.77c.45,3.09-.45,6.34.94,9.36,2.47,5.37,8.69,7.84,15.76,6.26,4.73-1.06,7.39-4.92,7.37-11-.07-20.46-1.59-40.86-2.81-61.27C324.85,231,322.6,226.2,328.74,225.54Z"/><path class="k" d="M303,226.46c0-4.11-2.18-6.58-6-7.44-7.14-1.59-14.38-2.73-21.44-4.57-9.93-2.57-20-4.91-29.07-10-1.55-.86-4.56-1.27-3.85-3.79.58-2.05,3.2-1.27,4.91-1.2,18.16.84,36.23-1.31,54.29-2.34a434.84,434.84,0,0,0,59.35-7c2.28-.44,4.61-.65,6.91-1s5.87-2,6.67.83,1.67,6.88-1.89,9.39c-.19-6.36-.55-6.52-6.64-4.69-4.09,1.23-8.3,2.07-12.47,3.05-9.29,2.2-18.31,5.43-27.88,6.64-12.28,1.54-24.2,5.42-36.64,6.11a6.53,6.53,0,0,0-1.48.12c-1.51.44-3.9.15-3.94,2.2,0,1.87,2.23,1.5,3.6,1.81,4.76,1.08,10.05.52,13.94,4.32C303.44,221.06,306.88,223,303,226.46Z"/><path class="k" d="M303.89,423.56c-9.36,7.75-17.46,16.77-25.66,25.66-7.37,8-7.17,8.23-14.77.42-9.37-9.64-19.18-18.85-27.94-29.07,4.22-.22,8,1.75,12,2.48,16.58,3,33.18,2.92,49.86,1.44C299.62,424.3,301.43,421.55,303.89,423.56Z"/><path class="k" d="M167,212.45c-.78-5.2,1-10.23.94-15.4-.06-3.16,2.33-3.83,4.9-3.4,15.42,2.53,31,3.59,46.53,4.87,2.37.2,4.26,1,4.45,3.76.41,5.8,3.74,9.8,8,13.22-4.26,2.2-8.89.69-13.07.44-15.32-.93-30.83-.8-45.77-5.16C170.58,210.06,168.94,211.68,167,212.45Z"/><path class="i" d="M353.85,261.48c-2.49-1.62-5.45-1-8.15-1.72-8.85-2.44-14.27-8.79-15-18-.28-3.45-1.19-6.84-.83-10.34l22.81-.05a2.11,2.11,0,0,0,2.11-1.81c4.54.14,7.08-4,11-5.17,3.58,2.19,3,5.76,3,9.13-4.37.07-7.47,2.43-10.15,5.59-1.11,1.3-2.19,2.64-1.47,4.47s2.27,1.64,3.77,1.86,3.22.69,4.83,1.05C363.49,252.82,361,259,353.85,261.48Zm-10.19-26.77c-2.46.24-4.94.35-7.37.77a3.07,3.07,0,0,0-2.69,3.11c0,1.86.92,3.45,2.75,3.57a49.42,49.42,0,0,0,14.76-.77,3.25,3.25,0,0,0,2.48-3.78,3.14,3.14,0,0,0-2.88-2.93,28.55,28.55,0,0,0-3.94-.24C345.64,233.43,344.61,233.63,343.66,234.71Z"/><path class="l" d="M311.23,334.42c-.16-5.43,2.79-9.51,8.07-9.82,5.54-.32,8.78,3.4,9.21,10.5.26,4.31.77,8.61.81,12.92.05,5.35-3.52,9.21-8.27,9.43s-8.47-3.47-8.91-8.83C311.79,344.31,311.58,340,311.23,334.42Zm9.88,11.05c-1.83.7-5.25-1.24-4.94,2.87.2,2.63,1.47,5,4.5,5,3.35,0,5.15-2.11,5.2-5.37C325.93,344.17,322.85,346.08,321.11,345.47Z"/><path class="j" d="M311.26,404.41c-7.25-1.3-14.95-3.15-21.54-8.06-1.32-1-2.31-2.27-1.28-3.79s2.7-.86,4-.16c2.2,1.16,4.28,2.59,6.54,3.59,17,7.48,28.88,1.38,39.85-12.47,1.46-1.84,2.24-6.25,5.52-4.12s-.38,4.78-1.54,6.73C336.49,396.79,323.43,404.33,311.26,404.41Z"/><path class="l" d="M286.8,237.54c2.31.8,5.32,1.09,4.7,4.6-.52,3-3.14,3-5.5,3.16l-14.43.81c-2.54.14-5-.38-5.22-3.31-.24-3.24,2.23-4.06,5-4.14,1.49,0,3-.22,4.46-.33l2-.11,3.3-.39Z"/><path class="j" d="M271.83,269.49c-1.1-.2-2.6-.14-2.47-1.73.09-1.17,1.38-1.17,2.36-1.31,3.74-.52,7.71-.45,11.17-1.74a16.25,16.25,0,0,0,10.62-11.53c.82-3.19,2.3-5.71,6.29-3.66,1.81,5.19-1.38,9.08-4.19,12.39-4.23,5-9.76,8.29-16.86,7.61C276.47,269.31,274.14,269.49,271.83,269.49Z"/><path class="j" d="M365.82,246.5c-1.61-.36-3.2-.81-4.83-1.05s-3.11-.16-3.77-1.86.36-3.17,1.47-4.47c2.68-3.16,5.78-5.52,10.15-5.59,1.14.81,3.44.6,3.32,2.43-.14,2.09-2.26,1.35-3.61,1.51-2,.24-4.35.46-5,2.56-.71,2.39,2,2.56,3.34,3.59s3.37,1.94,2.23,3.75C368.16,249,367,246.76,365.82,246.5Z"/><path class="i" d="M281.16,237.83l-3.3.39C278.73,236.19,279.91,236.67,281.16,237.83Z"/><path class="d" d="M354.79,229.57a2.11,2.11,0,0,1-2.11,1.81A2.44,2.44,0,0,1,354.79,229.57Z"/><path class="j" d="M248.48,255.68c-.58-3.65,1.6-4.71,2.89-6.24.82-1,2.34-1.67,1.84-3.25s-2.28-1.71-3.71-2A11.25,11.25,0,0,0,247,244c-1,0-2.21.28-2.4-1s1.08-1.46,2-1.81c4.46-1.73,11.71,1.32,13.59,5.71.7,1.62.59,3.14-1.31,3.57A22.14,22.14,0,0,0,248.48,255.68Z"/><path class="l" d="M346.77,234.44a28.55,28.55,0,0,1,3.94.24,3.14,3.14,0,0,1,2.88,2.93,3.25,3.25,0,0,1-2.48,3.78,49.42,49.42,0,0,1-14.76.77c-1.83-.12-2.77-1.71-2.75-3.57a3.07,3.07,0,0,1,2.69-3.11c2.43-.42,4.91-.53,7.37-.77A2.72,2.72,0,0,0,346.77,234.44Z"/><path class="j" d="M346.77,234.44a2.72,2.72,0,0,1-3.11.27C344.61,233.63,345.64,233.43,346.77,234.44Z"/><path class="m" d="M321.11,345.47c1.74.61,4.82-1.3,4.76,2.48-.05,3.26-1.85,5.38-5.2,5.37-3,0-4.3-2.35-4.5-5C315.86,344.23,319.28,346.17,321.11,345.47Z"/></svg>